<svg width="900" height="520" viewBox="0 0 900 520" fill="none" xmlns="http://www.w3.org/2000/svg" role="img" aria-labelledby="title desc">
  <title id="title">Memento Mori share card demo</title>
  <desc id="desc">A demo share card showing weeks lived, weeks left, and a remembered sentence.</desc>
  <rect width="900" height="520" rx="24" fill="#101418"/>
  <rect x="1" y="1" width="898" height="518" rx="24" stroke="#2F3A40" stroke-width="2"/>
  <g>
    <rect x="70" y="72" width="14" height="14" rx="3" fill="#D7C6A1"/>
    <rect x="94" y="72" width="14" height="14" rx="3" fill="#D7C6A1"/>
    <rect x="118" y="72" width="14" height="14" rx="3" fill="#D7C6A1"/>
    <rect x="142" y="72" width="14" height="14" rx="3" fill="#D7C6A1"/>
    <rect x="166" y="72" width="14" height="14" rx="3" fill="#D7C6A1"/>
    <rect x="190" y="72" width="14" height="14" rx="3" fill="#D7C6A1"/>
    <rect x="214" y="72" width="14" height="14" rx="3" fill="#D7C6A1"/>
    <rect x="238" y="72" width="14" height="14" rx="3" fill="#D7C6A1"/>
    <rect x="262" y="72" width="14" height="14" rx="3" fill="#D7C6A1"/>
    <rect x="286" y="72" width="14" height="14" rx="3" fill="#D7C6A1"/>
    <rect x="310" y="72" width="14" height="14" rx="3" fill="#344149" opacity="0.55"/>
    <rect x="334" y="72" width="14" height="14" rx="3" fill="#344149" opacity="0.55"/>
    <rect x="358" y="72" width="14" height="14" rx="3" fill="#344149" opacity="0.55"/>
    <rect x="382" y="72" width="14" height="14" rx="3" fill="#344149" opacity="0.55"/>
    <rect x="70" y="96" width="14" height="14" rx="3" fill="#344149" opacity="0.55"/>
    <rect x="94" y="96" width="14" height="14" rx="3" fill="#344149" opacity="0.55"/>
    <rect x="118" y="96" width="14" height="14" rx="3" fill="#344149" opacity="0.55"/>
    <rect x="142" y="96" width="14" height="14" rx="3" fill="#344149" opacity="0.55"/>
    <rect x="166" y="96" width="14" height="14" rx="3" fill="#344149" opacity="0.55"/>
    <rect x="190" y="96" width="14" height="14" rx="3" fill="#344149" opacity="0.55"/>
    <rect x="214" y="96" width="14" height="14" rx="3" fill="#344149" opacity="0.55"/>
    <rect x="238" y="96" width="14" height="14" rx="3" fill="#344149" opacity="0.55"/>
    <rect x="262" y="96" width="14" height="14" rx="3" fill="#344149" opacity="0.55"/>
    <rect x="286" y="96" width="14" height="14" rx="3" fill="#344149" opacity="0.55"/>
    <rect x="310" y="96" width="14" height="14" rx="3" fill="#344149" opacity="0.55"/>
    <rect x="334" y="96" width="14" height="14" rx="3" fill="#344149" opacity="0.55"/>
    <rect x="358" y="96" width="14" height="14" rx="3" fill="#344149" opacity="0.55"/>
    <rect x="382" y="96" width="14" height="14" rx="3" fill="#344149" opacity="0.55"/>
  </g>
  <text x="70" y="180" fill="#F5EFE0" font-family="Georgia, Times New Roman, serif" font-size="42">My Life in Weeks</text>
  <text x="70" y="224" fill="#D7C6A1" font-family="Inter, Segoe UI, Arial, sans-serif" font-size="20">Walked 1,549 weeks · 2,203 weeks left</text>
  <rect x="70" y="258" width="520" height="16" rx="8" fill="#263139"/>
  <rect x="70" y="258" width="213" height="16" rx="8" fill="#D7C6A1"/>
  <text x="612" y="273" fill="#E7E0CE" font-family="Inter, Segoe UI, Arial, sans-serif" font-size="18">41%</text>
  <text x="70" y="330" fill="#92A2AA" font-family="Inter, Segoe UI, Arial, sans-serif" font-size="16">This week, I kept:</text>
  <text x="70" y="372" fill="#F5EFE0" font-family="Georgia, Times New Roman, serif" font-size="28">“I finally made my first OpenClaw Skill.”</text>
  <text x="70" y="430" fill="#77878F" font-family="Inter, Segoe UI, Arial, sans-serif" font-size="15">Generated by Memento Mori for OpenClaw</text>
</svg>
